<svg width="20" height="22" viewBox="0 0 20 22" fill="none" xmlns="http://www.w3.org/2000/svg">
<path d="M2.00341 13.0026C1.81418 13.0033 1.62864 12.9502 1.46836 12.8496C1.30809 12.749 1.17964 12.605 1.09796 12.4343C1.01628 12.2636 0.984703 12.0732 1.00691 11.8853C1.02912 11.6973 1.10419 11.5196 1.22341 11.3726L11.1234 1.17261C11.1977 1.08689 11.2989 1.02897 11.4104 1.00834C11.5219 0.987721 11.6371 1.00562 11.7371 1.05912C11.8371 1.11261 11.916 1.19851 11.9607 1.30272C12.0055 1.40693 12.0135 1.52326 11.9834 1.63261L10.0634 7.65261C10.0068 7.80414 9.98778 7.96713 10.008 8.12762C10.0282 8.28811 10.0871 8.44129 10.1795 8.57404C10.2719 8.70678 10.3952 8.81513 10.5387 8.88977C10.6822 8.96442 10.8417 9.00314 11.0034 9.00261H18.0034C18.1926 9.00197 18.3782 9.05503 18.5385 9.15563C18.6987 9.25624 18.8272 9.40026 18.9089 9.57096C18.9905 9.74165 19.0221 9.93203 18.9999 10.12C18.9777 10.3079 18.9026 10.4857 18.7834 10.6326L8.88341 20.8326C8.80915 20.9183 8.70795 20.9763 8.59643 20.9969C8.48491 21.0175 8.36969 20.9996 8.26968 20.9461C8.16967 20.8926 8.09083 20.8067 8.04607 20.7025C8.00132 20.5983 7.99333 20.482 8.02341 20.3726L9.94341 14.3526C10 14.2011 10.019 14.0381 9.99882 13.8776C9.9786 13.7171 9.91975 13.5639 9.82732 13.4312C9.73489 13.2984 9.61164 13.1901 9.46813 13.1155C9.32463 13.0408 9.16516 13.0021 9.00341 13.0026H2.00341Z" stroke="white" stroke-width="2" stroke-linecap="round" stroke-linejoin="round"/>
</svg>
