<svg width="20" height="23" viewBox="0 0 20 23" fill="none" xmlns="http://www.w3.org/2000/svg">
<path d="M2.625 22.501H1.125C0.826631 22.501 0.540483 22.3825 0.329505 22.1715C0.118526 21.9605 0 21.6744 0 21.376V14.626C0 14.3276 0.118526 14.0415 0.329505 13.8305C0.540483 13.6195 0.826631 13.501 1.125 13.501H2.625C2.92337 13.501 3.20952 13.6195 3.42049 13.8305C3.63147 14.0415 3.75 14.3276 3.75 14.626V21.376C3.75 21.6744 3.63147 21.9605 3.42049 22.1715C3.20952 22.3825 2.92337 22.501 2.625 22.501Z" fill="black"/>
<path d="M13.125 22.4997H11.625C11.3267 22.4997 11.0405 22.3812 10.8296 22.1702C10.6186 21.9592 10.5 21.6731 10.5 21.3747V10.1247C10.5 9.82632 10.6186 9.54018 10.8296 9.3292C11.0405 9.11822 11.3267 8.99969 11.625 8.99969H13.125C13.4234 8.99969 13.7096 9.11822 13.9205 9.3292C14.1315 9.54018 14.25 9.82632 14.25 10.1247V21.3747C14.25 21.6731 14.1315 21.9592 13.9205 22.1702C13.7096 22.3812 13.4234 22.4997 13.125 22.4997Z" fill="black"/>
<path d="M18.375 22.5003H16.875C16.5766 22.5003 16.2905 22.3817 16.0795 22.1708C15.8685 21.9598 15.75 21.6736 15.75 21.3753V4.87528C15.75 4.57691 15.8685 4.29076 16.0795 4.07978C16.2905 3.8688 16.5766 3.75028 16.875 3.75028H18.375C18.6734 3.75028 18.9595 3.8688 19.1705 4.07978C19.3815 4.29076 19.5 4.57691 19.5 4.87528V21.3753C19.5 21.6736 19.3815 21.9598 19.1705 22.1708C18.9595 22.3817 18.6734 22.5003 18.375 22.5003Z" fill="black"/>
<path d="M7.87502 22.5H6.37502C6.07665 22.5 5.79051 22.3815 5.57953 22.1705C5.36855 21.9595 5.25002 21.6734 5.25002 21.375V1.125C5.25002 0.826631 5.36855 0.540483 5.57953 0.329505C5.79051 0.118526 6.07665 0 6.37502 0H7.87502C8.17339 0 8.45954 0.118526 8.67052 0.329505C8.8815 0.540483 9.00002 0.826631 9.00002 1.125V21.375C9.00002 21.6734 8.8815 21.9595 8.67052 22.1705C8.45954 22.3815 8.17339 22.5 7.87502 22.5Z" fill="black"/>
</svg>
